<?xml version="1.0" encoding="utf-8"?>
<!-- Generator: Adobe Illustrator 26.3.1, SVG Export Plug-In . SVG Version: 6.00 Build 0)  -->
<svg version="1.1" id="Layer_1" xmlns="http://www.w3.org/2000/svg" xmlns:xlink="http://www.w3.org/1999/xlink" x="0px" y="0px"
	 viewBox="0 0 32 32" style="enable-background:new 0 0 32 32;" xml:space="preserve">
<style type="text/css">
	.st0{fill:#DBAF51;}
</style>
<path class="st0" d="M6,6C4.4,6,3,7.4,3,9v6.8c-0.6,0.6-1,1.3-1,2.2v9h5v-2h18v2h5v-9c0-0.9-0.4-1.7-1-2.2V9c0-1.6-1.4-3-3-3H6z
	 M6,8h20c0.6,0,1,0.4,1,1v6h-2v-1c0-1.6-1.4-3-3-3h-4c-0.8,0-1.5,0.3-2,0.8c-0.5-0.5-1.2-0.8-2-0.8h-4c-1.6,0-3,1.4-3,3v1H5V9
	C5,8.4,5.4,8,6,8z M10,13h4c0.6,0,1,0.4,1,1v1H9v-1C9,13.4,9.4,13,10,13z M18,13h4c0.6,0,1,0.4,1,1v1h-6v-1C17,13.4,17.4,13,18,13z
	 M5,17h22c0.6,0,1,0.4,1,1v7h-1v-2H5v2H4v-7C4,17.4,4.4,17,5,17z"/>
</svg>
