<?xml version="1.0" encoding="utf-8"?>
<!-- Generator: Adobe Illustrator 26.3.1, SVG Export Plug-In . SVG Version: 6.00 Build 0)  -->
<svg version="1.1" id="Layer_1" xmlns="http://www.w3.org/2000/svg" xmlns:xlink="http://www.w3.org/1999/xlink" x="0px" y="0px"
	 viewBox="0 0 32 32" style="enable-background:new 0 0 32 32;" xml:space="preserve">
<style type="text/css">
	.st0{fill:#DBAF51;}
</style>
<path class="st0" d="M11.5,6l-0.3,0.4L10,8H3v18h26V8h-7l-1.2-1.6L20.5,6H11.5z M12.5,8h7l1.2,1.6L21,10h6v14H5V10h6l0.3-0.4L12.5,8
	z M8,11c-0.6,0-1,0.4-1,1s0.4,1,1,1s1-0.4,1-1S8.6,11,8,11z M16,11c-3.3,0-6,2.7-6,6s2.7,6,6,6s6-2.7,6-6S19.3,11,16,11z M16,13
	c2.2,0,4,1.8,4,4s-1.8,4-4,4s-4-1.8-4-4S13.8,13,16,13z"/>
</svg>
