<?xml version="1.0" encoding="utf-8"?>
<!-- Generator: Adobe Illustrator 26.3.1, SVG Export Plug-In . SVG Version: 6.00 Build 0)  -->
<svg version="1.1" id="Layer_1" xmlns="http://www.w3.org/2000/svg" xmlns:xlink="http://www.w3.org/1999/xlink" x="0px" y="0px"
	 viewBox="0 0 32 32" style="enable-background:new 0 0 32 32;" xml:space="preserve">
<style type="text/css">
	.st0{fill:#DBAF51;}
</style>
<path class="st0" d="M20,3c-4.9,0-9,4.1-9,9c0,0.5,0.1,1,0.2,1.4l-7.9,7.8L3,21.6V29h7v-3h3v-3h3v-3c1.2,0.6,2.6,1,4,1
	c4.9,0,9-4.1,9-9S24.9,3,20,3z M20,5c3.9,0,7,3.1,7,7s-3.1,7-7,7c-1.2,0-2.5-0.4-3.4-0.9L16.3,18H14v3h-3v3H8v3H5v-4.6l7.9-7.9
	l0.4-0.3l-0.1-0.5C13.1,13,13,12.5,13,12C13,8.1,16.1,5,20,5z M22,8c-1.1,0-2,0.9-2,2s0.9,2,2,2s2-0.9,2-2S23.1,8,22,8z"/>
</svg>
