<?xml version="1.0" encoding="utf-8"?>
<!-- Generator: Adobe Illustrator 26.3.1, SVG Export Plug-In . SVG Version: 6.00 Build 0)  -->
<svg version="1.1" id="Layer_1" xmlns="http://www.w3.org/2000/svg" xmlns:xlink="http://www.w3.org/1999/xlink" x="0px" y="0px"
	 viewBox="0 0 32 32" style="enable-background:new 0 0 32 32;" xml:space="preserve">
<style type="text/css">
	.st0{fill:#DBAF51;}
</style>
<path class="st0" d="M16,4c-5,0-9,4-9,9c0,1.9,0.8,3.9,2,5.7c0.9,1.3,1.9,2.5,3,3.5V25c0,1.1,0.9,2,2,2l1,1h2l1-1c1.1,0,2-0.9,2-2
	v-2.8c1.1-0.9,2.1-2.1,3-3.5c1.2-1.8,2-3.8,2-5.7C25,8,21,4,16,4z M16,6c3.9,0,7,3.1,7,7c0,1.3-0.6,3-1.7,4.6
	c-0.9,1.4-2.1,2.6-3.2,3.4h-4.3c-1.1-0.8-2.3-2-3.2-3.4C9.6,16,9,14.3,9,13C9,9.1,12.1,6,16,6z M14.2,23h3.5
	c0.1,0.1,0.2,0.1,0.2,0.1V25h-4v-1.9C14.1,23.1,14.2,23.1,14.2,23z"/>
</svg>
