<?xml version="1.0" encoding="utf-8"?>
<!-- Generator: Adobe Illustrator 26.3.1, SVG Export Plug-In . SVG Version: 6.00 Build 0)  -->
<svg version="1.1" id="Layer_1" xmlns="http://www.w3.org/2000/svg" xmlns:xlink="http://www.w3.org/1999/xlink" x="0px" y="0px"
	 viewBox="0 0 32 32" style="enable-background:new 0 0 32 32;" xml:space="preserve">
<style type="text/css">
	.st0{fill:#DBAF51;}
</style>
<path class="st0" d="M16,3c-5,0-9,4-9,9c0,1.4,0.6,3,1.3,4.8c0.8,1.8,1.8,3.6,2.8,5.4c2,3.5,4.1,6.4,4.1,6.4l0.8,1.2l0.8-1.2
	c0,0,2-2.9,4.1-6.4c1-1.7,2-3.6,2.8-5.4S25,13.4,25,12C25,7,21,3,16,3z M16,5c3.9,0,7,3.1,7,7c0,0.8-0.4,2.3-1.2,4s-1.7,3.5-2.7,5.2
	c-1.6,2.7-2.5,4.1-3.1,5c-0.6-0.9-1.6-2.3-3.1-5c-1-1.7-2-3.5-2.7-5.2C9.4,14.3,9,12.8,9,12C9,8.1,12.1,5,16,5z M16,10
	c-1.1,0-2,0.9-2,2s0.9,2,2,2s2-0.9,2-2S17.1,10,16,10z"/>
</svg>
