<?xml version="1.0" encoding="utf-8"?>
<!-- Generator: Adobe Illustrator 26.2.1, SVG Export Plug-In . SVG Version: 6.00 Build 0)  -->
<svg version="1.1" id="Layer_1" xmlns="http://www.w3.org/2000/svg" xmlns:xlink="http://www.w3.org/1999/xlink" x="0px" y="0px"
	 viewBox="0 0 32 32" style="enable-background:new 0 0 32 32;" xml:space="preserve">
<style type="text/css">
	.st0{fill:#DBAF51;}
</style>
<path class="st0" d="M16,3.6l-0.7,0.7l-5.9,6l-1,1l1.3,0.6c0,0,1,0.4,2.4,0.7l-4.4,4.4l-1,1l1.2,0.6c0,0,1.1,0.3,1.6,0.5l-3.6,3.6
	l-1,1l1.2,0.6c0,0,2.4,1.2,6.8,1.6V29h2v-3c0.3,0,0.6,0,1,0c0.4,0,0.7,0,1,0v3h2v-3.2c4.4-0.4,6.8-1.6,6.8-1.6l1.2-0.6l-1-1L22.5,19
	c0.5-0.2,1.6-0.5,1.6-0.5l1.2-0.6l-1-1l-4.4-4.4c1.4-0.3,2.4-0.7,2.4-0.7l1.3-0.6l-1-1l-5.9-6L16,3.6z M16,6.4l4,4
	c-0.6,0.2-0.7,0.4-2.2,0.5L16,11.1l-1.8-0.2c-1.5-0.1-1.6-0.3-2.2-0.5L16,6.4z M16,11.4l1.2,1.2l4.6,4.6c-0.5,0.2-0.5,0.2-1.4,0.4
	L18.5,18l1.3,1.3l3.7,3.7C22.3,23.4,20.1,24,16,24c-4,0-6.2-0.6-7.5-1.1l3.6-3.7l1.3-1.3l-1.8-0.4c-1-0.2-0.9-0.2-1.4-0.4l4.6-4.6
	L16,11.4z"/>
</svg>
